<svg width="493" height="559" viewBox="0 0 493 559" fill="none" xmlns="http://www.w3.org/2000/svg">
<g filter="url(#filter0_df_32_190)">
<path d="M111.674 174.762C115.13 164.271 126.491 153.135 137.049 149.889L255.021 113.621C265.579 110.375 271.336 116.248 267.88 126.739L221.82 266.552C218.364 277.043 207.004 288.179 196.446 291.425L78.4733 327.693C67.9153 330.939 62.1581 325.066 65.6143 314.575L111.674 174.762Z" fill="white"/>
<path d="M135.797 153.689L253.769 117.42C262.216 114.823 266.822 119.522 264.057 127.915L217.997 267.727C215.232 276.12 206.144 285.029 197.697 287.626L79.7249 323.894C71.2785 326.491 66.6727 321.792 69.4376 313.399L115.497 173.587C118.262 165.194 127.351 156.285 135.797 153.689Z" stroke="#007D58" stroke-width="8"/>
</g>
<g filter="url(#filter1_df_32_190)">
<path d="M320.536 67.0189C323.992 56.5279 335.353 45.3919 345.911 42.146L463.883 5.87729C474.441 2.63139 480.198 8.50476 476.742 18.9958L430.682 158.808C427.226 169.299 415.866 180.435 405.308 183.681L287.335 219.95C276.777 223.196 271.02 217.323 274.476 206.831L320.536 67.0189Z" fill="white"/>
<path d="M344.659 45.9451L462.632 9.67644C471.078 7.07972 475.684 11.7784 472.919 20.1713L426.859 159.984C424.094 168.377 415.006 177.285 406.559 179.882L288.587 216.151C280.141 218.748 275.535 214.049 278.3 205.656L324.359 65.8435C327.124 57.4506 336.213 48.5418 344.659 45.9451Z" stroke="#B9CC45" stroke-width="8"/>
</g>
<rect width="81.0594" height="12.6784" transform="matrix(0.967864 -0.251474 -0.303871 0.952713 130.283 172.81)" fill="#EFEFEF" fill-opacity="0.54"/>
<rect x="0.331997" y="0.35062" width="80.0594" height="11.6784" transform="matrix(0.967864 -0.251474 -0.303871 0.952713 130.4 172.91)" stroke="#007D58" stroke-opacity="0.4"/>
<rect width="81.0594" height="12.6784" transform="matrix(0.967864 -0.251474 -0.303871 0.952713 307.754 162.04)" fill="#EFEFEF" fill-opacity="0.54"/>
<rect x="0.331997" y="0.35062" width="80.0594" height="11.6784" transform="matrix(0.967864 -0.251474 -0.303871 0.952713 307.872 162.14)" stroke="#B9CC45" stroke-opacity="0.4"/>
<rect width="81.0594" height="12.6784" transform="matrix(0.967864 -0.251474 -0.303871 0.952713 332.381 177.37)" fill="#EFEFEF" fill-opacity="0.54"/>
<rect x="0.331997" y="0.35062" width="80.0594" height="11.6784" transform="matrix(0.967864 -0.251474 -0.303871 0.952713 332.498 177.47)" stroke="#B9CC45" stroke-opacity="0.4"/>
<rect width="81.0594" height="42.2233" transform="matrix(0.967864 -0.251474 -0.303871 0.952713 120.274 218.482)" fill="#EFEFEF" fill-opacity="0.54"/>
<rect x="0.331997" y="0.35062" width="80.0594" height="41.2233" transform="matrix(0.967864 -0.251474 -0.303871 0.952713 120.391 218.582)" stroke="#007D58" stroke-opacity="0.4"/>
<rect width="81.0594" height="12.6784" transform="matrix(0.967864 -0.251474 -0.303871 0.952713 334.446 133.789)" fill="#EFEFEF" fill-opacity="0.54"/>
<rect x="0.331997" y="0.35062" width="80.0594" height="11.6784" transform="matrix(0.967864 -0.251474 -0.303871 0.952713 334.563 133.889)" stroke="#B9CC45" stroke-opacity="0.4"/>
<rect width="81.0594" height="12.6784" transform="matrix(0.967864 -0.251474 -0.303871 0.952713 130.283 195.805)" fill="#EFEFEF" fill-opacity="0.54"/>
<rect x="0.331997" y="0.35062" width="80.0594" height="11.6784" transform="matrix(0.967864 -0.251474 -0.303871 0.952713 130.4 195.905)" stroke="#007D58" stroke-opacity="0.4"/>
<rect width="81.0594" height="12.6784" transform="matrix(0.967864 -0.251474 -0.303871 0.952713 354.306 57.1392)" fill="#EFEFEF" fill-opacity="0.54"/>
<rect x="0.331997" y="0.35062" width="80.0594" height="11.6784" transform="matrix(0.967864 -0.251474 -0.303871 0.952713 354.423 57.2392)" stroke="#B9CC45" stroke-opacity="0.4"/>
<rect width="81.0594" height="12.6784" transform="matrix(0.967864 -0.251474 -0.303871 0.952713 98.8252 274.227)" fill="#EFEFEF" fill-opacity="0.54"/>
<rect x="0.331997" y="0.35062" width="80.0594" height="11.6784" transform="matrix(0.967864 -0.251474 -0.303871 0.952713 98.9424 274.327)" stroke="#007D58" stroke-opacity="0.4"/>
<rect width="81.0594" height="12.6784" transform="matrix(0.967864 -0.251474 -0.303871 0.952713 122.657 286.77)" fill="#EFEFEF" fill-opacity="0.54"/>
<rect x="0.331997" y="0.35062" width="80.0594" height="11.6784" transform="matrix(0.967864 -0.251474 -0.303871 0.952713 122.774 286.87)" stroke="#007D58" stroke-opacity="0.4"/>
<g filter="url(#filter2_df_32_190)">
<path d="M266.808 276.063C270.264 265.572 281.625 254.436 292.183 251.19L410.155 214.922C420.713 211.676 426.47 217.549 423.014 228.04L376.954 367.853C373.498 378.344 362.138 389.48 351.58 392.726L233.607 428.994C223.049 432.24 217.292 426.367 220.748 415.876L266.808 276.063Z" fill="white"/>
<path d="M290.931 254.99L408.904 218.721C417.35 216.124 421.956 220.823 419.191 229.216L373.131 369.028C370.366 377.421 361.278 386.33 352.831 388.927L234.859 425.195C226.413 427.792 221.807 423.093 224.572 414.7L270.631 274.888C273.396 266.495 282.485 257.586 290.931 254.99Z" stroke="#007D58" stroke-width="8"/>
</g>
<rect width="81.0594" height="12.6784" transform="matrix(0.967864 -0.251474 -0.303871 0.952713 285.417 274.111)" fill="#EFEFEF" fill-opacity="0.54"/>
<rect x="0.331997" y="0.35062" width="80.0594" height="11.6784" transform="matrix(0.967864 -0.251474 -0.303871 0.952713 285.534 274.211)" stroke="#007D58" stroke-opacity="0.4"/>
<rect width="81.0594" height="42.2233" transform="matrix(0.967864 -0.251474 -0.303871 0.952713 275.408 319.783)" fill="#EFEFEF" fill-opacity="0.54"/>
<rect x="0.331997" y="0.35062" width="80.0594" height="41.2233" transform="matrix(0.967864 -0.251474 -0.303871 0.952713 275.525 319.883)" stroke="#007D58" stroke-opacity="0.4"/>
<rect width="81.0594" height="12.6784" transform="matrix(0.967864 -0.251474 -0.303871 0.952713 285.417 297.106)" fill="#EFEFEF" fill-opacity="0.54"/>
<rect x="0.331997" y="0.35062" width="80.0594" height="11.6784" transform="matrix(0.967864 -0.251474 -0.303871 0.952713 285.534 297.206)" stroke="#007D58" stroke-opacity="0.4"/>
<rect width="81.0594" height="12.6784" transform="matrix(0.967864 -0.251474 -0.303871 0.952713 253.959 375.528)" fill="#EFEFEF" fill-opacity="0.54"/>
<rect x="0.331997" y="0.35062" width="80.0594" height="11.6784" transform="matrix(0.967864 -0.251474 -0.303871 0.952713 254.076 375.628)" stroke="#007D58" stroke-opacity="0.4"/>
<rect width="81.0594" height="12.6784" transform="matrix(0.967864 -0.251474 -0.303871 0.952713 277.792 388.071)" fill="#EFEFEF" fill-opacity="0.54"/>
<rect x="0.331997" y="0.35062" width="80.0594" height="11.6784" transform="matrix(0.967864 -0.251474 -0.303871 0.952713 277.909 388.171)" stroke="#007D58" stroke-opacity="0.4"/>
<rect width="81.0594" height="45.0787" transform="matrix(0.967864 -0.251474 -0.303871 0.952713 350.334 79.437)" fill="#EFEFEF" fill-opacity="0.54"/>
<rect x="0.331997" y="0.35062" width="80.0594" height="44.0787" transform="matrix(0.967864 -0.251474 -0.303871 0.952713 350.451 79.5371)" stroke="#B9CC45" stroke-opacity="0.4"/>
<g filter="url(#filter3_df_32_190)">
<path d="M52.3177 379.192C55.7739 368.701 67.1346 357.565 77.6926 354.319L195.665 318.05C206.223 314.804 211.98 320.678 208.524 331.169L162.464 470.981C159.008 481.473 147.647 492.609 137.089 495.854L19.1171 532.123C8.55909 535.369 2.80189 529.496 6.25805 519.005L52.3177 379.192Z" fill="white"/>
<path d="M76.4411 358.118L194.413 321.85C202.86 319.253 207.465 323.952 204.701 332.344L158.641 472.157C155.876 480.55 146.787 489.459 138.341 492.055L20.3687 528.324C11.9223 530.921 7.31652 526.222 10.0814 517.829L56.1411 378.017C58.9061 369.624 67.9947 360.715 76.4411 358.118Z" stroke="#B9CC45" stroke-width="8"/>
</g>
<rect width="81.0594" height="12.6784" transform="matrix(0.967864 -0.251474 -0.303871 0.952713 39.5361 474.213)" fill="#EFEFEF" fill-opacity="0.54"/>
<rect x="0.331997" y="0.35062" width="80.0594" height="11.6784" transform="matrix(0.967864 -0.251474 -0.303871 0.952713 39.6533 474.313)" stroke="#B9CC45" stroke-opacity="0.4"/>
<rect width="81.0594" height="12.6784" transform="matrix(0.967864 -0.251474 -0.303871 0.952713 64.1628 489.543)" fill="#EFEFEF" fill-opacity="0.54"/>
<rect x="0.331997" y="0.35062" width="80.0594" height="11.6784" transform="matrix(0.967864 -0.251474 -0.303871 0.952713 64.2801 489.643)" stroke="#B9CC45" stroke-opacity="0.4"/>
<rect width="81.0594" height="12.6784" transform="matrix(0.967864 -0.251474 -0.303871 0.952713 66.2278 445.961)" fill="#EFEFEF" fill-opacity="0.54"/>
<rect x="0.331997" y="0.35062" width="80.0594" height="11.6784" transform="matrix(0.967864 -0.251474 -0.303871 0.952713 66.345 446.061)" stroke="#B9CC45" stroke-opacity="0.4"/>
<rect width="81.0594" height="12.6784" transform="matrix(0.967864 -0.251474 -0.303871 0.952713 86.0879 369.312)" fill="#EFEFEF" fill-opacity="0.54"/>
<rect x="0.331997" y="0.35062" width="80.0594" height="11.6784" transform="matrix(0.967864 -0.251474 -0.303871 0.952713 86.2051 369.412)" stroke="#B9CC45" stroke-opacity="0.4"/>
<rect width="81.0594" height="45.0787" transform="matrix(0.967864 -0.251474 -0.303871 0.952713 82.116 391.61)" fill="#EFEFEF" fill-opacity="0.54"/>
<rect x="0.331997" y="0.35062" width="80.0594" height="44.0787" transform="matrix(0.967864 -0.251474 -0.303871 0.952713 82.2332 391.71)" stroke="#B9CC45" stroke-opacity="0.4"/>
<defs>
<filter id="filter0_df_32_190" x="62.6106" y="110.727" width="221.273" height="242.86" filterUnits="userSpaceOnUse" color-interpolation-filters="sRGB">
<feFlood flood-opacity="0" result="BackgroundImageFix"/>
<feColorMatrix in="SourceAlpha" type="matrix" values="0 0 0 0 0 0 0 0 0 0 0 0 0 0 0 0 0 0 127 0" result="hardAlpha"/>
<feOffset dx="10" dy="20"/>
<feGaussianBlur stdDeviation="2.5"/>
<feComposite in2="hardAlpha" operator="out"/>
<feColorMatrix type="matrix" values="0 0 0 0 0 0 0 0 0 0 0 0 0 0 0 0 0 0 0.4 0"/>
<feBlend mode="normal" in2="BackgroundImageFix" result="effect1_dropShadow_32_190"/>
<feBlend mode="normal" in="SourceGraphic" in2="effect1_dropShadow_32_190" result="shape"/>
<feGaussianBlur stdDeviation="1" result="effect2_foregroundBlur_32_190"/>
</filter>
<filter id="filter1_df_32_190" x="271.473" y="2.98364" width="221.273" height="242.86" filterUnits="userSpaceOnUse" color-interpolation-filters="sRGB">
<feFlood flood-opacity="0" result="BackgroundImageFix"/>
<feColorMatrix in="SourceAlpha" type="matrix" values="0 0 0 0 0 0 0 0 0 0 0 0 0 0 0 0 0 0 127 0" result="hardAlpha"/>
<feOffset dx="10" dy="20"/>
<feGaussianBlur stdDeviation="2.5"/>
<feComposite in2="hardAlpha" operator="out"/>
<feColorMatrix type="matrix" values="0 0 0 0 0 0 0 0 0 0 0 0 0 0 0 0 0 0 0.4 0"/>
<feBlend mode="normal" in2="BackgroundImageFix" result="effect1_dropShadow_32_190"/>
<feBlend mode="normal" in="SourceGraphic" in2="effect1_dropShadow_32_190" result="shape"/>
<feGaussianBlur stdDeviation="1" result="effect2_foregroundBlur_32_190"/>
</filter>
<filter id="filter2_df_32_190" x="217.745" y="212.028" width="221.273" height="242.86" filterUnits="userSpaceOnUse" color-interpolation-filters="sRGB">
<feFlood flood-opacity="0" result="BackgroundImageFix"/>
<feColorMatrix in="SourceAlpha" type="matrix" values="0 0 0 0 0 0 0 0 0 0 0 0 0 0 0 0 0 0 127 0" result="hardAlpha"/>
<feOffset dx="10" dy="20"/>
<feGaussianBlur stdDeviation="2.5"/>
<feComposite in2="hardAlpha" operator="out"/>
<feColorMatrix type="matrix" values="0 0 0 0 0 0 0 0 0 0 0 0 0 0 0 0 0 0 0.4 0"/>
<feBlend mode="normal" in2="BackgroundImageFix" result="effect1_dropShadow_32_190"/>
<feBlend mode="normal" in="SourceGraphic" in2="effect1_dropShadow_32_190" result="shape"/>
<feGaussianBlur stdDeviation="1" result="effect2_foregroundBlur_32_190"/>
</filter>
<filter id="filter3_df_32_190" x="3.25439" y="315.157" width="221.273" height="242.86" filterUnits="userSpaceOnUse" color-interpolation-filters="sRGB">
<feFlood flood-opacity="0" result="BackgroundImageFix"/>
<feColorMatrix in="SourceAlpha" type="matrix" values="0 0 0 0 0 0 0 0 0 0 0 0 0 0 0 0 0 0 127 0" result="hardAlpha"/>
<feOffset dx="10" dy="20"/>
<feGaussianBlur stdDeviation="2.5"/>
<feComposite in2="hardAlpha" operator="out"/>
<feColorMatrix type="matrix" values="0 0 0 0 0 0 0 0 0 0 0 0 0 0 0 0 0 0 0.4 0"/>
<feBlend mode="normal" in2="BackgroundImageFix" result="effect1_dropShadow_32_190"/>
<feBlend mode="normal" in="SourceGraphic" in2="effect1_dropShadow_32_190" result="shape"/>
<feGaussianBlur stdDeviation="1" result="effect2_foregroundBlur_32_190"/>
</filter>
</defs>
</svg>
